<?xml version="1.0" encoding="UTF-8"?>
<svg xmlns="http://www.w3.org/2000/svg" xmlns:xlink="http://www.w3.org/1999/xlink" width="24px" height="px" viewBox="0 0 24 24" version="1.1">
<g id="surface1">
<path style=" stroke:none;fill-rule:nonzero;fill:rgb(100%,100%,100%);fill-opacity:1;" d="M 4 22 L 16 22 L 16 20 L 4 20 L 4 8 L 2 8 L 2 20 C 2 21.101562 2.898438 22 4 22 Z M 4 22 "/>
<path style=" stroke:none;fill-rule:nonzero;fill:rgb(100%,100%,100%);fill-opacity:1;" d="M 20 2 L 8 2 C 6.898438 2 6 2.898438 6 4 L 6 16 C 6 17.101562 6.898438 18 8 18 L 20 18 C 21.101562 18 22 17.101562 22 16 L 22 4 C 22 2.898438 21.101562 2 20 2 Z M 18 11 L 15 11 L 15 14 L 13 14 L 13 11 L 10 11 L 10 9 L 13 9 L 13 6 L 15 6 L 15 9 L 18 9 Z M 18 11 "/>
</g>
</svg>
