<?xml version="1.0" encoding="UTF-8"?>
<svg xmlns="http://www.w3.org/2000/svg" xmlns:xlink="http://www.w3.org/1999/xlink" width="24px" height="px" viewBox="0 0 24 24" version="1.1">
<g id="surface1">
<path style=" stroke:none;fill-rule:nonzero;fill:rgb(100%,100%,100%);fill-opacity:1;" d="M 20.953125 10.667969 C 20.882812 10.34375 20.683594 10.046875 20.453125 9.921875 C 20.382812 9.882812 19.929688 9.835938 19.449219 9.8125 C 18.640625 9.777344 18.550781 9.761719 18.296875 9.613281 C 17.890625 9.375 17.78125 9.117188 17.777344 8.425781 C 17.777344 7.097656 17.222656 5.867188 16.132812 4.753906 C 15.355469 3.960938 14.488281 3.425781 13.496094 3.125 C 13.261719 3.054688 12.730469 3.027344 10.953125 3.007812 C 8.164062 2.976562 7.546875 3.03125 6.597656 3.410156 C 4.847656 4.105469 3.589844 5.574219 3.132812 7.460938 C 3.046875 7.8125 3.027344 8.378906 3.007812 11.636719 C 2.984375 15.71875 3.011719 16.316406 3.265625 17.125 C 3.476562 17.792969 3.691406 18.203125 4.128906 18.78125 C 4.960938 19.890625 6.210938 20.6875 7.460938 20.914062 C 8.054688 21.023438 15.390625 21.050781 16.144531 20.945312 C 17.449219 20.769531 18.476562 20.246094 19.4375 19.261719 C 20.132812 18.554688 20.566406 17.785156 20.851562 16.765625 C 20.96875 16.339844 20.976562 16.132812 21 13.648438 C 21.015625 11.769531 21.003906 10.890625 20.953125 10.667969 Z M 8.007812 8.109375 C 8.320312 7.792969 8.40625 7.777344 10.371094 7.777344 C 12.136719 7.777344 12.191406 7.78125 12.453125 7.914062 C 12.828125 8.101562 12.988281 8.367188 12.988281 8.792969 C 12.988281 9.175781 12.835938 9.445312 12.496094 9.660156 C 12.3125 9.777344 12.203125 9.785156 10.476562 9.796875 C 9.410156 9.800781 8.558594 9.78125 8.433594 9.746094 C 7.765625 9.5625 7.515625 8.605469 8.007812 8.109375 Z M 15.714844 16.144531 L 15.117188 16.242188 L 12.003906 16.277344 C 9.265625 16.3125 8.492188 16.261719 8.351562 16.199219 C 8.0625 16.074219 7.796875 15.726562 7.746094 15.417969 C 7.707031 15.125 7.851562 14.722656 8.078125 14.519531 C 8.363281 14.261719 8.488281 14.253906 11.988281 14.246094 C 15.589844 14.246094 15.570312 14.246094 15.914062 14.5625 C 16.394531 15.011719 16.296875 15.8125 15.714844 16.144531 Z M 15.714844 16.144531 "/>
</g>
</svg>
