<?xml version="1.0" encoding="UTF-8"?>
<svg xmlns="http://www.w3.org/2000/svg" xmlns:xlink="http://www.w3.org/1999/xlink" width="24px" height="px" viewBox="0 0 24 24" version="1.1">
<g id="surface1">
<path style=" stroke:none;fill-rule:nonzero;fill:rgb(100%,100%,100%);fill-opacity:1;" d="M 10 3 L 4 3 C 3.449219 3 3 3.449219 3 4 L 3 10 C 3 10.550781 3.449219 11 4 11 L 10 11 C 10.550781 11 11 10.550781 11 10 L 11 4 C 11 3.449219 10.550781 3 10 3 Z M 20 3 L 14 3 C 13.449219 3 13 3.449219 13 4 L 13 10 C 13 10.550781 13.449219 11 14 11 L 20 11 C 20.550781 11 21 10.550781 21 10 L 21 4 C 21 3.449219 20.550781 3 20 3 Z M 10 13 L 4 13 C 3.449219 13 3 13.449219 3 14 L 3 20 C 3 20.550781 3.449219 21 4 21 L 10 21 C 10.550781 21 11 20.550781 11 20 L 11 14 C 11 13.449219 10.550781 13 10 13 Z M 18 14 L 16 14 L 16 16 L 14 16 L 14 18 L 16 18 L 16 20 L 18 20 L 18 18 L 20 18 L 20 16 L 18 16 Z M 18 14 "/>
</g>
</svg>
