<?xml version="1.0" encoding="UTF-8"?>
<svg xmlns="http://www.w3.org/2000/svg" xmlns:xlink="http://www.w3.org/1999/xlink" width="24px" height="px" viewBox="0 0 24 24" version="1.1">
<g id="surface1">
<path style=" stroke:none;fill-rule:nonzero;fill:rgb(100%,100%,100%);fill-opacity:1;" d="M 19 10 L 19 7 C 19 5.898438 18.101562 5 17 5 L 14 5 C 14 3.347656 12.652344 2 11 2 C 9.347656 2 8 3.347656 8 5 L 5 5 C 3.898438 5 3 5.898438 3 7 L 3 11 L 4 11 C 5.105469 11 6 11.894531 6 13 C 6 14.105469 5.105469 15 4 15 L 3 15 L 3 19 C 3 20.101562 3.898438 21 5 21 L 9 21 L 9 20 C 9 18.894531 9.894531 18 11 18 C 12.105469 18 13 18.894531 13 20 L 13 21 L 17 21 C 18.101562 21 19 20.101562 19 19 L 19 16 C 20.652344 16 22 14.652344 22 13 C 22 11.347656 20.652344 10 19 10 Z M 19 10 "/>
</g>
</svg>
