<?xml version="1.0" encoding="UTF-8"?>
<svg xmlns="http://www.w3.org/2000/svg" xmlns:xlink="http://www.w3.org/1999/xlink" width="24px" height="px" viewBox="0 0 24 24" version="1.1">
<g id="surface1">
<path style=" stroke:none;fill-rule:nonzero;fill:rgb(100%,100%,100%);fill-opacity:1;" d="M 21 3 L 5 3 C 4.449219 3 4 3.449219 4 4 L 4 6.589844 C 4 7.113281 4.214844 7.628906 4.582031 7.996094 L 10 13.414062 L 10 21 C 10 21.347656 10.179688 21.667969 10.472656 21.851562 C 10.769531 22.03125 11.136719 22.050781 11.445312 21.894531 L 15.445312 19.894531 C 15.785156 19.726562 16 19.378906 16 19 L 16 13.414062 L 21.417969 7.996094 C 21.785156 7.628906 22 7.113281 22 6.589844 L 22 4 C 22 3.449219 21.550781 3 21 3 Z M 14.292969 12.292969 C 14.105469 12.480469 14 12.734375 14 13 L 14 18.382812 L 12 19.382812 L 12 13 C 12 12.734375 11.894531 12.480469 11.707031 12.292969 L 6 6.589844 L 6 5 L 20 5 L 20.003906 6.582031 Z M 14.292969 12.292969 "/>
</g>
</svg>
