<?xml version="1.0" encoding="UTF-8"?>
<svg xmlns="http://www.w3.org/2000/svg" xmlns:xlink="http://www.w3.org/1999/xlink" width="24px" height="px" viewBox="0 0 24 24" version="1.1">
<g id="surface1">
<path style=" stroke:none;fill-rule:nonzero;fill:rgb(100%,100%,100%);fill-opacity:1;" d="M 2.164062 19.550781 C 2.351562 19.832031 2.664062 20 3 20 L 18 20 C 18.398438 20 18.761719 19.761719 18.917969 19.394531 L 21.917969 12.394531 C 22.050781 12.085938 22.019531 11.730469 21.835938 11.449219 C 21.652344 11.167969 21.335938 11 21 11 L 20 11 L 20 8 C 20 6.898438 19.101562 6 18 6 L 11.34375 6 L 8.789062 4 L 4 4 C 2.898438 4 2 4.898438 2 6 L 2 19 L 2.007812 19 C 2.003906 19.195312 2.058594 19.386719 2.164062 19.550781 Z M 18 8 L 18 11 L 6 11 C 5.601562 11 5.238281 11.238281 5.082031 11.605469 L 4 14.128906 L 4 8 Z M 18 8 "/>
</g>
</svg>
