<?xml version="1.0" encoding="UTF-8"?>
<svg xmlns="http://www.w3.org/2000/svg" xmlns:xlink="http://www.w3.org/1999/xlink" width="24px" height="px" viewBox="0 0 24 24" version="1.1">
<g id="surface1">
<path style=" stroke:none;fill-rule:nonzero;fill:rgb(100%,100%,100%);fill-opacity:1;" d="M 5 12 L 4 12 L 4 20 C 4 21.105469 4.894531 22 6 22 L 11 22 L 11 12 Z M 18 12 L 13 12 L 13 22 L 18 22 C 19.105469 22 20 21.105469 20 20 L 20 12 Z M 18.789062 7 C 18.9375 6.515625 19.007812 6.007812 19 5.5 C 19 3.570312 17.429688 2 15.5 2 C 13.878906 2 12.796875 3.480469 12.097656 5.085938 C 11.40625 3.570312 10.269531 2 8.5 2 C 6.570312 2 5 3.570312 5 5.5 C 5 6.097656 5.078125 6.589844 5.210938 7 L 2 7 L 2 11 L 11 11 L 11 9 L 13 9 L 13 11 L 22 11 L 22 7 Z M 7 5.5 C 7 4.671875 7.671875 4 8.5 4 C 9.386719 4 10.214844 5.523438 10.699219 7 L 8 7 C 7.625 7 7 7 7 5.5 Z M 15.5 4 C 16.328125 4 17 4.671875 17 5.5 C 17 7 16.375 7 16 7 L 13.523438 7 C 14.03125 5.425781 14.773438 4 15.5 4 Z M 15.5 4 "/>
</g>
</svg>
