<?xml version="1.0" encoding="UTF-8"?>
<svg xmlns="http://www.w3.org/2000/svg" xmlns:xlink="http://www.w3.org/1999/xlink" width="24px" height="px" viewBox="0 0 24 24" version="1.1">
<g id="surface1">
<path style=" stroke:none;fill-rule:nonzero;fill:rgb(100%,100%,100%);fill-opacity:1;" d="M 19.765625 7.035156 L 14.566406 1.835938 C 14.414062 1.683594 14.210938 1.601562 14 1.601562 L 5.601562 1.601562 C 4.714844 1.601562 4 2.316406 4 3.199219 L 4 20.800781 C 4 21.683594 4.714844 22.398438 5.601562 22.398438 L 18.398438 22.398438 C 19.285156 22.398438 20 21.683594 20 20.800781 L 20 7.601562 C 20 7.386719 19.914062 7.183594 19.765625 7.035156 Z M 14.398438 16.800781 L 8 16.800781 C 7.558594 16.800781 7.199219 16.441406 7.199219 16 C 7.199219 15.558594 7.558594 15.199219 8 15.199219 L 14.398438 15.199219 C 14.839844 15.199219 15.199219 15.558594 15.199219 16 C 15.199219 16.441406 14.839844 16.800781 14.398438 16.800781 Z M 16 13.601562 L 8 13.601562 C 7.558594 13.601562 7.199219 13.242188 7.199219 12.800781 C 7.199219 12.359375 7.558594 12 8 12 L 16 12 C 16.441406 12 16.800781 12.359375 16.800781 12.800781 C 16.800781 13.242188 16.441406 13.601562 16 13.601562 Z M 14.398438 8 C 13.957031 8 13.601562 7.640625 13.601562 7.199219 L 13.601562 3.125 L 18.476562 8 Z M 14.398438 8 "/>
</g>
</svg>
