<?xml version="1.0" encoding="UTF-8"?>
<svg xmlns="http://www.w3.org/2000/svg" xmlns:xlink="http://www.w3.org/1999/xlink" width="25px" height="25px" viewBox="0 0 25 25" version="1.1">
<g id="surface1">
<path style=" stroke:none;fill-rule:nonzero;fill:rgb(100%,100%,100%);fill-opacity:1;" d="M 17.148438 2.628906 L 10.488281 2.628906 C 8.949219 2.625 7.5625 3.566406 7 5 C 5.351562 5.273438 4.136719 6.6875 4.109375 8.359375 L 4.109375 18.929688 C 4.132812 20.851562 5.707031 22.390625 7.628906 22.371094 L 15 22.371094 C 16.671875 22.375 18.117188 21.210938 18.46875 19.578125 C 19.910156 19.070312 20.875 17.707031 20.878906 16.179688 L 20.878906 6.230469 C 20.835938 4.210938 19.171875 2.601562 17.148438 2.628906 Z M 10.628906 6.289062 L 14.230469 6.289062 C 14.492188 6.257812 14.746094 6.378906 14.886719 6.601562 C 15.027344 6.824219 15.027344 7.105469 14.886719 7.328125 C 14.746094 7.550781 14.492188 7.671875 14.230469 7.640625 L 10.628906 7.640625 C 10.265625 7.640625 9.960938 7.363281 9.929688 7 C 9.929688 6.613281 10.242188 6.296875 10.628906 6.289062 Z M 10.351562 9.289062 L 17.289062 9.289062 C 17.550781 9.257812 17.804688 9.378906 17.945312 9.601562 C 18.085938 9.824219 18.085938 10.105469 17.945312 10.328125 C 17.804688 10.550781 17.550781 10.671875 17.289062 10.640625 L 10.351562 10.640625 C 9.972656 10.640625 9.660156 10.339844 9.648438 9.960938 C 9.648438 9.773438 9.71875 9.59375 9.851562 9.457031 C 9.984375 9.324219 10.164062 9.25 10.351562 9.25 Z M 10.351562 11.980469 L 17.289062 11.980469 C 17.660156 11.980469 17.960938 12.28125 17.960938 12.648438 C 17.960938 13.019531 17.660156 13.320312 17.289062 13.320312 L 10.351562 13.320312 C 10.167969 13.332031 9.988281 13.261719 9.859375 13.128906 C 9.730469 13.003906 9.652344 12.832031 9.648438 12.648438 C 9.648438 12.460938 9.71875 12.28125 9.851562 12.148438 C 9.984375 12.015625 10.164062 11.941406 10.351562 11.941406 Z M 10.351562 14.980469 L 17.289062 14.980469 C 17.660156 14.980469 17.960938 15.28125 17.960938 15.648438 C 17.960938 16.019531 17.660156 16.320312 17.289062 16.320312 L 10.351562 16.320312 C 10.167969 16.324219 9.992188 16.257812 9.859375 16.128906 C 9.730469 16.003906 9.652344 15.832031 9.648438 15.648438 C 9.636719 15.457031 9.703125 15.265625 9.835938 15.121094 C 9.96875 14.980469 10.15625 14.898438 10.351562 14.898438 Z M 15 20.820312 L 7.648438 20.820312 C 6.636719 20.820312 5.8125 20.011719 5.789062 19 L 5.789062 8.378906 C 5.796875 7.699219 6.183594 7.078125 6.789062 6.769531 L 6.789062 16.230469 C 6.832031 18.261719 8.507812 19.882812 10.539062 19.859375 L 16.671875 19.859375 C 16.324219 20.453125 15.6875 20.820312 15 20.820312 Z M 15 20.820312 "/>
</g>
</svg>
