<?xml version="1.0" encoding="UTF-8"?>
<svg xmlns="http://www.w3.org/2000/svg" xmlns:xlink="http://www.w3.org/1999/xlink" width="24px" height="px" viewBox="0 0 24 24" version="1.1">
<g id="surface1">
<path style=" stroke:none;fill-rule:nonzero;fill:rgb(100%,100%,100%);fill-opacity:1;" d="M 20 2 L 8 2 C 6.898438 2 6 2.898438 6 4 L 6 16 C 6 17.101562 6.898438 18 8 18 L 20 18 C 21.101562 18 22 17.101562 22 16 L 22 4 C 22 2.898438 21.101562 2 20 2 Z M 8 16 L 8 4 L 20 4 L 20.003906 16 Z M 8 16 "/>
<path style=" stroke:none;fill-rule:nonzero;fill:rgb(100%,100%,100%);fill-opacity:1;" d="M 4 8 L 2 8 L 2 20 C 2 21.101562 2.898438 22 4 22 L 16 22 L 16 20 L 4 20 Z M 4 8 "/>
<path style=" stroke:none;fill-rule:nonzero;fill:rgb(100%,100%,100%);fill-opacity:1;" d="M 12 12 L 11 11 L 9 14 L 19 14 L 15 8 Z M 12 12 "/>
</g>
</svg>
