<?xml version="1.0" encoding="UTF-8"?>
<svg xmlns="http://www.w3.org/2000/svg" xmlns:xlink="http://www.w3.org/1999/xlink" width="24px" height="px" viewBox="0 0 24 24" version="1.1">
<g id="surface1">
<path style=" stroke:none;fill-rule:nonzero;fill:rgb(100%,100%,100%);fill-opacity:1;" d="M 9 13 L 12 9 L 15 13.5 L 15 12 L 19 12 L 19 5 C 19 3.898438 18.101562 3 17 3 L 4 3 C 2.898438 3 2 3.898438 2 5 L 2 17 C 2 18.101562 2.898438 19 4 19 L 12 19 L 12 15 L 5 15 L 8 11 Z M 9 13 "/>
<path style=" stroke:none;fill-rule:nonzero;fill:rgb(100%,100%,100%);fill-opacity:1;" d="M 19 14 L 17 14 L 17 17 L 14 17 L 14 19 L 17 19 L 17 22 L 19 22 L 19 19 L 22 19 L 22 17 L 19 17 Z M 19 14 "/>
</g>
</svg>
