<?xml version="1.0" encoding="UTF-8"?>
<svg xmlns="http://www.w3.org/2000/svg" xmlns:xlink="http://www.w3.org/1999/xlink" width="25px" height="25px" viewBox="0 0 25 25" version="1.1">
<g id="surface1">
<path style=" stroke:none;fill-rule:nonzero;fill:rgb(100%,100%,100%);fill-opacity:1;" d="M 0 13.230469 L 0 23.691406 C 0 24.414062 0.585938 25 1.308594 25 L 11.769531 25 L 11.769531 13.230469 Z M 9.558594 17.71875 C 9.53125 18.03125 9.292969 18.285156 8.980469 18.328125 C 8.789062 18.347656 8.59375 18.3125 8.421875 18.230469 C 7.910156 17.988281 7.421875 17.730469 6.890625 17.46875 L 6.640625 17.359375 L 6.640625 17.648438 C 6.640625 18.589844 6.640625 19.539062 6.640625 20.480469 C 6.671875 21.4375 6.074219 22.308594 5.167969 22.621094 C 4.261719 22.933594 3.253906 22.621094 2.6875 21.847656 C 2.117188 21.074219 2.121094 20.023438 2.691406 19.25 C 3.214844 18.523438 4.136719 18.203125 5 18.449219 L 5.148438 18.449219 C 5.148438 17.699219 5.148438 16.988281 5.148438 16.269531 C 5.09375 15.96875 5.226562 15.667969 5.484375 15.503906 C 5.746094 15.34375 6.074219 15.359375 6.320312 15.539062 L 9.121094 17 C 9.40625 17.121094 9.582031 17.410156 9.558594 17.71875 Z M 9.558594 17.71875 "/>
<path style=" stroke:none;fill-rule:nonzero;fill:rgb(100%,100%,100%);fill-opacity:1;" d="M 11.769531 0 L 1.308594 0 C 0.585938 0 0 0.585938 0 1.308594 L 0 11.769531 L 11.769531 11.769531 Z M 9.140625 6.589844 L 5 9.371094 C 4.765625 9.585938 4.417969 9.625 4.140625 9.46875 C 3.867188 9.3125 3.710938 9.003906 3.75 8.691406 L 3.75 3.101562 C 3.71875 2.792969 3.867188 2.5 4.128906 2.339844 C 4.414062 2.195312 4.757812 2.234375 5 2.441406 L 9.140625 5.230469 C 9.40625 5.351562 9.574219 5.617188 9.574219 5.910156 C 9.574219 6.203125 9.40625 6.46875 9.140625 6.589844 Z M 9.140625 6.589844 "/>
<path style=" stroke:none;fill-rule:nonzero;fill:rgb(100%,100%,100%);fill-opacity:1;" d="M 23.691406 0 L 13.230469 0 L 13.230469 11.769531 L 25 11.769531 L 25 1.308594 C 25 0.585938 24.414062 0 23.691406 0 Z M 22.800781 8.71875 C 22.847656 9.015625 22.710938 9.3125 22.453125 9.46875 C 22.195312 9.621094 21.871094 9.609375 21.628906 9.429688 L 19.140625 8.199219 C 19.027344 8.140625 18.898438 8.109375 18.769531 8.109375 L 16.328125 8.109375 C 16.09375 8.140625 15.859375 8.058594 15.691406 7.890625 C 15.523438 7.722656 15.445312 7.484375 15.480469 7.25 L 15.480469 4.558594 C 15.445312 4.324219 15.523438 4.089844 15.691406 3.921875 C 15.859375 3.753906 16.097656 3.675781 16.328125 3.710938 C 17.140625 3.710938 17.941406 3.710938 18.75 3.710938 C 18.894531 3.703125 19.035156 3.667969 19.171875 3.609375 L 21.609375 2.390625 C 21.859375 2.203125 22.195312 2.1875 22.460938 2.351562 C 22.722656 2.515625 22.859375 2.824219 22.800781 3.128906 Z M 22.800781 8.71875 "/>
<path style=" stroke:none;fill-rule:nonzero;fill:rgb(100%,100%,100%);fill-opacity:1;" d="M 18.738281 19.128906 L 19.621094 20 C 19.824219 20.175781 19.914062 20.449219 19.851562 20.710938 C 19.792969 20.980469 19.585938 21.191406 19.320312 21.261719 C 19.054688 21.332031 18.773438 21.246094 18.589844 21.039062 C 17.859375 20.320312 17.128906 19.578125 16.398438 18.851562 L 16.199219 18.671875 L 13.320312 21.519531 C 13.261719 21.601562 13.234375 21.699219 13.238281 21.800781 C 13.238281 22.871094 13.238281 23.929688 13.238281 25 L 23.691406 25 C 24.414062 25 25 24.414062 25 23.691406 L 25 21.578125 L 20.640625 17.238281 Z M 18.738281 19.128906 "/>
<path style=" stroke:none;fill-rule:nonzero;fill:rgb(100%,100%,100%);fill-opacity:1;" d="M 13.238281 19.488281 L 13.460938 19.300781 L 15.640625 17.160156 C 15.78125 16.988281 15.988281 16.890625 16.210938 16.890625 C 16.429688 16.890625 16.640625 16.988281 16.78125 17.160156 L 17.679688 18.058594 L 20 15.789062 C 20.144531 15.566406 20.390625 15.433594 20.65625 15.433594 C 20.917969 15.433594 21.167969 15.566406 21.308594 15.789062 L 24.851562 19.328125 C 24.914062 19.390625 24.980469 19.441406 25.050781 19.488281 L 25.050781 13.230469 L 13.238281 13.230469 Z M 13.238281 19.488281 "/>
<path style=" stroke:none;fill-rule:nonzero;fill:rgb(100%,100%,100%);fill-opacity:1;" d="M 4.449219 21.289062 C 4.046875 21.285156 3.722656 20.960938 3.710938 20.558594 C 3.714844 20.160156 4.039062 19.835938 4.441406 19.828125 C 4.839844 19.828125 5.164062 20.152344 5.171875 20.550781 C 5.175781 20.953125 4.851562 21.285156 4.449219 21.289062 Z M 4.449219 21.289062 "/>
<path style=" stroke:none;fill-rule:nonzero;fill:rgb(100%,100%,100%);fill-opacity:1;" d="M 5.199219 7.460938 L 5.199219 4.359375 L 7.519531 5.910156 Z M 5.199219 7.460938 "/>
<path style=" stroke:none;fill-rule:nonzero;fill:rgb(100%,100%,100%);fill-opacity:1;" d="M 18.390625 6.621094 L 17 6.621094 L 17 5.191406 L 18.441406 5.191406 Z M 21.328125 7.621094 C 20.960938 7.441406 20.628906 7.25 20.269531 7.109375 C 19.984375 7.03125 19.808594 6.75 19.859375 6.460938 C 19.859375 5.988281 19.859375 5.460938 19.859375 5.039062 C 19.855469 4.964844 19.886719 4.890625 19.941406 4.839844 L 21.308594 4.148438 Z M 21.328125 7.621094 "/>
<path style=" stroke:none;fill-rule:nonzero;fill:rgb(100%,100%,100%);fill-opacity:1;" d="M 4.441406 19.828125 C 4.039062 19.835938 3.714844 20.160156 3.710938 20.558594 C 3.722656 20.960938 4.046875 21.285156 4.449219 21.289062 C 4.851562 21.285156 5.175781 20.953125 5.171875 20.550781 C 5.164062 20.152344 4.839844 19.828125 4.441406 19.828125 Z M 4.441406 19.828125 "/>
<path style=" stroke:none;fill-rule:nonzero;fill:rgb(100%,100%,100%);fill-opacity:1;" d="M 5.199219 7.460938 L 7.519531 5.910156 L 5.199219 4.359375 Z M 5.199219 7.460938 "/>
<path style=" stroke:none;fill-rule:nonzero;fill:rgb(100%,100%,100%);fill-opacity:1;" d="M 19.878906 5.058594 C 19.878906 5.53125 19.878906 6.058594 19.878906 6.480469 C 19.828125 6.769531 20.007812 7.050781 20.289062 7.128906 C 20.648438 7.269531 20.980469 7.460938 21.351562 7.640625 L 21.351562 4.171875 L 20 4.859375 C 19.929688 4.902344 19.886719 4.976562 19.878906 5.058594 Z M 19.878906 5.058594 "/>
<path style=" stroke:none;fill-rule:nonzero;fill:rgb(100%,100%,100%);fill-opacity:1;" d="M 17 6.621094 L 18.441406 6.621094 L 18.441406 5.191406 L 17 5.191406 Z M 17 6.621094 "/>
</g>
</svg>
