<?xml version="1.0" encoding="UTF-8"?>
<svg xmlns="http://www.w3.org/2000/svg" xmlns:xlink="http://www.w3.org/1999/xlink" width="25px" height="25px" viewBox="0 0 25 25" version="1.1">
<g id="surface1">
<path style=" stroke:none;fill-rule:nonzero;fill:rgb(100%,100%,100%);fill-opacity:1;" d="M 2.800781 13.0625 L 2.800781 21.25 C 2.800781 21.808594 3.253906 22.261719 3.8125 22.261719 L 11.9375 22.261719 L 11.9375 13.0625 Z M 10.226562 16.550781 C 10.195312 16.789062 10.011719 16.984375 9.773438 17.023438 C 9.625 17.03125 9.476562 17.007812 9.335938 16.949219 L 8.085938 16.363281 L 7.949219 16.25 L 7.949219 16.476562 C 7.949219 17.199219 7.949219 17.9375 7.949219 18.664062 C 7.980469 19.410156 7.515625 20.085938 6.8125 20.332031 C 6.105469 20.578125 5.324219 20.335938 4.882812 19.734375 C 4.4375 19.132812 4.441406 18.3125 4.886719 17.710938 C 5.300781 17.144531 6.027344 16.898438 6.699219 17.101562 L 6.8125 17.101562 L 6.8125 15.449219 C 6.773438 15.214844 6.878906 14.976562 7.082031 14.851562 C 7.285156 14.722656 7.542969 14.734375 7.738281 14.875 L 9.875 15.949219 C 10.109375 16.050781 10.25 16.296875 10.226562 16.550781 Z M 10.226562 16.550781 "/>
<path style=" stroke:none;fill-rule:nonzero;fill:rgb(100%,100%,100%);fill-opacity:1;" d="M 11.9375 2.800781 L 3.8125 2.800781 C 3.253906 2.800781 2.800781 3.253906 2.800781 3.8125 L 2.800781 11.9375 L 11.9375 11.9375 Z M 9.886719 7.914062 L 6.648438 10.074219 C 6.464844 10.242188 6.195312 10.273438 5.976562 10.15625 C 5.757812 10.039062 5.636719 9.796875 5.675781 9.550781 C 5.675781 9 5.675781 8.460938 5.675781 7.925781 L 5.675781 6.835938 C 5.675781 6.300781 5.675781 5.75 5.675781 5.210938 C 5.652344 4.976562 5.769531 4.746094 5.976562 4.625 C 6.191406 4.503906 6.464844 4.535156 6.648438 4.699219 L 9.886719 6.863281 C 10.09375 6.953125 10.226562 7.160156 10.226562 7.386719 C 10.226562 7.613281 10.09375 7.820312 9.886719 7.914062 Z M 9.886719 7.914062 "/>
<path style=" stroke:none;fill-rule:nonzero;fill:rgb(100%,100%,100%);fill-opacity:1;" d="M 21.25 2.800781 L 13.125 2.800781 L 13.125 11.9375 L 22.261719 11.9375 L 22.261719 3.8125 C 22.261719 3.253906 21.808594 2.800781 21.25 2.800781 Z M 20.5 9.5625 C 20.53125 9.792969 20.421875 10.019531 20.226562 10.140625 C 20.027344 10.261719 19.777344 10.253906 19.585938 10.125 L 17.648438 9.164062 C 17.558594 9.125 17.460938 9.097656 17.363281 9.085938 L 15.476562 9.085938 C 15.292969 9.117188 15.105469 9.058594 14.972656 8.925781 C 14.839844 8.796875 14.78125 8.609375 14.8125 8.425781 L 14.8125 6.335938 C 14.8125 5.898438 15.023438 5.6875 15.476562 5.675781 L 17.351562 5.675781 C 17.460938 5.675781 17.574219 5.648438 17.675781 5.601562 L 19.5625 4.664062 C 19.753906 4.515625 20.015625 4.5 20.222656 4.625 C 20.429688 4.75 20.539062 4.988281 20.5 5.226562 Z M 20.5 9.5625 "/>
<path style=" stroke:none;fill-rule:nonzero;fill:rgb(100%,100%,100%);fill-opacity:1;" d="M 17.335938 17.648438 C 17.5625 17.863281 17.800781 18.085938 18.023438 18.324219 C 18.246094 18.546875 18.246094 18.902344 18.023438 19.125 C 17.804688 19.347656 17.445312 19.347656 17.226562 19.125 C 16.648438 18.5625 16.085938 18 15.523438 17.425781 L 15.375 17.289062 L 13.136719 19.5 C 13.113281 19.574219 13.113281 19.652344 13.136719 19.726562 C 13.136719 20.550781 13.136719 21.375 13.136719 22.226562 L 21.25 22.226562 C 21.808594 22.226562 22.261719 21.773438 22.261719 21.210938 L 22.261719 19.550781 L 18.875 16.175781 Z M 17.335938 17.648438 "/>
<path style=" stroke:none;fill-rule:nonzero;fill:rgb(100%,100%,100%);fill-opacity:1;" d="M 13.074219 17.925781 C 13.132812 17.882812 13.1875 17.832031 13.238281 17.773438 L 15 16.113281 C 15.109375 15.980469 15.273438 15.902344 15.445312 15.902344 C 15.617188 15.902344 15.777344 15.980469 15.886719 16.113281 L 16.101562 16.324219 L 16.585938 16.8125 L 18.273438 15 C 18.386719 14.828125 18.582031 14.722656 18.789062 14.722656 C 18.992188 14.722656 19.1875 14.828125 19.300781 15 L 22.039062 17.738281 L 22.199219 17.863281 L 22.199219 13.0625 L 13.074219 13.0625 Z M 13.074219 17.925781 "/>
<path style=" stroke:none;fill-rule:nonzero;fill:rgb(100%,100%,100%);fill-opacity:1;" d="M 6.25 19.3125 C 5.9375 19.3125 5.6875 19.0625 5.6875 18.75 C 5.6875 18.4375 5.9375 18.1875 6.25 18.1875 C 6.5625 18.1875 6.8125 18.4375 6.8125 18.75 C 6.8125 19.0625 6.5625 19.3125 6.25 19.3125 Z M 6.25 19.3125 "/>
<path style=" stroke:none;fill-rule:nonzero;fill:rgb(100%,100%,100%);fill-opacity:1;" d="M 6.835938 8.585938 L 6.835938 6.25 L 8.636719 7.5 Z M 6.835938 8.585938 "/>
<path style=" stroke:none;fill-rule:nonzero;fill:rgb(100%,100%,100%);fill-opacity:1;" d="M 17.074219 7.9375 L 15.960938 7.9375 L 15.960938 6.824219 L 17.074219 6.824219 Z M 19.351562 8.75 C 19.082031 8.597656 18.808594 8.464844 18.523438 8.351562 C 18.296875 8.292969 18.15625 8.066406 18.210938 7.835938 C 18.210938 7.476562 18.210938 7.113281 18.210938 6.738281 C 18.210938 6.679688 18.234375 6.628906 18.273438 6.585938 C 18.613281 6.398438 18.960938 6.238281 19.335938 6.050781 Z M 19.351562 8.75 "/>
<path style=" stroke:none;fill-rule:nonzero;fill:rgb(100%,100%,100%);fill-opacity:1;" d="M 6.25 18.1875 C 5.9375 18.1875 5.6875 18.4375 5.6875 18.75 C 5.6875 19.0625 5.9375 19.3125 6.25 19.3125 C 6.5625 19.3125 6.8125 19.0625 6.8125 18.75 C 6.8125 18.4375 6.5625 18.1875 6.25 18.1875 Z M 6.25 18.1875 "/>
<path style=" stroke:none;fill-rule:nonzero;fill:rgb(100%,100%,100%);fill-opacity:1;" d="M 6.835938 8.585938 L 8.636719 7.335938 L 6.835938 6.25 Z M 6.835938 8.585938 "/>
<path style=" stroke:none;fill-rule:nonzero;fill:rgb(100%,100%,100%);fill-opacity:1;" d="M 18.226562 6.726562 C 18.226562 7.101562 18.226562 7.460938 18.226562 7.824219 C 18.171875 8.054688 18.308594 8.28125 18.539062 8.335938 C 18.820312 8.453125 19.097656 8.585938 19.363281 8.738281 L 19.363281 6.039062 C 18.988281 6.226562 18.636719 6.386719 18.300781 6.574219 C 18.253906 6.613281 18.226562 6.667969 18.226562 6.726562 Z M 18.226562 6.726562 "/>
<path style=" stroke:none;fill-rule:nonzero;fill:rgb(100%,100%,100%);fill-opacity:1;" d="M 15.960938 7.9375 L 17.074219 7.9375 L 17.074219 6.824219 L 15.960938 6.824219 Z M 15.960938 7.9375 "/>
</g>
</svg>
