<?xml version="1.0" encoding="UTF-8"?>
<svg xmlns="http://www.w3.org/2000/svg" xmlns:xlink="http://www.w3.org/1999/xlink" width="25px" height="25px" viewBox="0 0 25 29" version="1.1">
<g id="surface1">
<path style=" stroke:none;fill-rule:nonzero;fill:rgb(100%,100%,100%);fill-opacity:1;" d="M 19.328125 0 L 9.542969 0 C 7.257812 -0.0078125 5.210938 1.363281 4.410156 3.4375 C 1.945312 3.890625 0.164062 5.984375 0.171875 8.414062 L 0.171875 23.941406 C 0.164062 26.71875 2.480469 28.976562 5.347656 28.984375 L 16.1875 28.984375 C 18.675781 28.972656 20.804688 27.257812 21.277344 24.890625 C 23.417969 24.105469 24.832031 22.117188 24.828125 19.898438 L 24.828125 5.277344 C 24.800781 2.351562 22.34375 -0.00390625 19.328125 0 Z M 9.75 5.375 L 15.046875 5.375 C 15.609375 5.375 16.066406 5.816406 16.066406 6.359375 C 16.066406 6.90625 15.609375 7.347656 15.046875 7.347656 L 9.75 7.347656 C 9.476562 7.351562 9.21875 7.246094 9.027344 7.0625 C 8.835938 6.875 8.726562 6.625 8.730469 6.359375 C 8.738281 5.820312 9.191406 5.382812 9.75 5.375 Z M 9.339844 9.71875 L 19.53125 9.71875 C 20.09375 9.71875 20.550781 10.160156 20.550781 10.707031 C 20.550781 11.253906 20.09375 11.695312 19.53125 11.695312 L 9.339844 11.695312 C 9.070312 11.695312 8.808594 11.59375 8.617188 11.40625 C 8.425781 11.222656 8.320312 10.96875 8.320312 10.707031 C 8.332031 10.164062 8.78125 9.726562 9.339844 9.71875 Z M 9.339844 13.671875 L 19.53125 13.671875 C 20.09375 13.671875 20.550781 14.113281 20.550781 14.65625 C 20.550781 15.203125 20.09375 15.644531 19.53125 15.644531 L 9.339844 15.644531 C 9.070312 15.648438 8.808594 15.542969 8.617188 15.359375 C 8.425781 15.171875 8.320312 14.921875 8.320312 14.65625 C 8.332031 14.117188 8.78125 13.679688 9.339844 13.671875 Z M 9.339844 18.015625 L 19.53125 18.015625 C 20.09375 18.015625 20.550781 18.457031 20.550781 19.003906 C 20.550781 19.550781 20.09375 19.992188 19.53125 19.992188 L 9.339844 19.992188 C 9.070312 19.992188 8.808594 19.890625 8.617188 19.703125 C 8.425781 19.519531 8.320312 19.265625 8.320312 19.003906 C 8.332031 18.460938 8.78125 18.023438 9.339844 18.015625 Z M 16.1875 26.707031 L 5.378906 26.707031 C 3.863281 26.6875 2.644531 25.492188 2.648438 24.023438 L 2.648438 8.4375 C 2.644531 7.457031 3.191406 6.550781 4.074219 6.070312 L 4.074219 19.976562 C 4.089844 22.914062 6.546875 25.292969 9.578125 25.308594 L 18.585938 25.308594 C 18.09375 26.148438 17.183594 26.679688 16.1875 26.707031 Z M 16.1875 26.707031 "/>
</g>
</svg>
