<?xml version="1.0" encoding="UTF-8"?>
<svg xmlns="http://www.w3.org/2000/svg" xmlns:xlink="http://www.w3.org/1999/xlink" width="24px" height="px" viewBox="0 0 24 24" version="1.1">
<g id="surface1">
<path style=" stroke:none;fill-rule:nonzero;fill:rgb(100%,100%,100%);fill-opacity:1;" d="M 21.085938 2.914062 C 19.90625 1.734375 17.851562 1.734375 16.671875 2.914062 L 8.292969 11.292969 C 8.105469 11.480469 8 11.734375 8 12 C 8 12.265625 8.105469 12.519531 8.292969 12.707031 L 11.292969 15.707031 C 11.480469 15.894531 11.734375 16 12 16 C 12.265625 16 12.519531 15.894531 12.707031 15.707031 L 21.085938 7.328125 C 22.304688 6.109375 22.300781 4.132812 21.085938 2.914062 Z M 19.671875 5.914062 L 12 13.585938 L 10.414062 12 L 18.085938 4.328125 C 18.53125 3.902344 19.230469 3.90625 19.671875 4.328125 C 20.109375 4.769531 20.109375 5.476562 19.671875 5.914062 Z M 8 15 C 6.734375 14.367188 4.5 15 4.5 17 C 4.5 18.195312 5 19 3 20 C 3 20 6.25 22.25 8.5 20 C 9.773438 18.726562 9.992188 16 8 15 Z M 8 15 "/>
</g>
</svg>
