<?xml version="1.0" encoding="UTF-8"?>
<svg xmlns="http://www.w3.org/2000/svg" xmlns:xlink="http://www.w3.org/1999/xlink" width="24px" height="px" viewBox="0 0 24 24" version="1.1">
<g id="surface1">
<path style=" stroke:none;fill-rule:nonzero;fill:rgb(100%,100%,100%);fill-opacity:1;" d="M 20 12 L 20 18 C 20 18.550781 19.550781 19 19 19 C 18.449219 19 18 18.550781 18 18 L 18 4 C 18 3.449219 17.550781 3 17 3 L 3 3 C 2.449219 3 2 3.449219 2 4 L 2 18 C 2 19.652344 3.347656 21 5 21 L 19 21 C 20.652344 21 22 19.652344 22 18 L 22 12 Z M 14 11 L 14 13 L 6 13 L 6 11 Z M 6 9 L 6 7 L 14 7 L 14 9 Z M 14 15 L 14 17 L 11 17 L 11 15 Z M 14 15 "/>
</g>
</svg>
