<?xml version="1.0" encoding="UTF-8"?>
<svg xmlns="http://www.w3.org/2000/svg" xmlns:xlink="http://www.w3.org/1999/xlink" width="24px" height="px" viewBox="0 0 24 24" version="1.1">
<g id="surface1">
<path style=" stroke:none;fill-rule:nonzero;fill:rgb(100%,100%,100%);fill-opacity:1;" d="M 7.5 14.5 C 5.921875 14.5 4.597656 15.558594 4.164062 17 L 2 17 L 2 19 L 4.164062 19 C 4.597656 20.441406 5.921875 21.5 7.5 21.5 C 9.078125 21.5 10.402344 20.441406 10.835938 19 L 22 19 L 22 17 L 10.835938 17 C 10.402344 15.558594 9.078125 14.5 7.5 14.5 Z M 7.5 19.5 C 6.671875 19.5 6 18.828125 6 18 C 6 17.171875 6.671875 16.5 7.5 16.5 C 8.328125 16.5 9 17.171875 9 18 C 9 18.828125 8.328125 19.5 7.5 19.5 Z M 16.5 8.5 C 14.921875 8.5 13.597656 9.558594 13.164062 11 L 2 11 L 2 13 L 13.164062 13 C 13.597656 14.441406 14.921875 15.5 16.5 15.5 C 18.078125 15.5 19.402344 14.441406 19.835938 13 L 22 13 L 22 11 L 19.835938 11 C 19.402344 9.558594 18.078125 8.5 16.5 8.5 Z M 16.5 13.5 C 15.671875 13.5 15 12.828125 15 12 C 15 11.171875 15.671875 10.5 16.5 10.5 C 17.328125 10.5 18 11.171875 18 12 C 18 12.828125 17.328125 13.5 16.5 13.5 Z M 16.5 13.5 "/>
<path style=" stroke:none;fill-rule:nonzero;fill:rgb(100%,100%,100%);fill-opacity:1;" d="M 12.835938 5 C 12.402344 3.558594 11.078125 2.5 9.5 2.5 C 7.921875 2.5 6.597656 3.558594 6.164062 5 L 2 5 L 2 7 L 6.164062 7 C 6.597656 8.441406 7.921875 9.5 9.5 9.5 C 11.078125 9.5 12.402344 8.441406 12.835938 7 L 22.125 7 L 22.125 5 Z M 9.5 7.5 C 8.671875 7.5 8 6.828125 8 6 C 8 5.171875 8.671875 4.5 9.5 4.5 C 10.328125 4.5 11 5.171875 11 6 C 11 6.828125 10.328125 7.5 9.5 7.5 Z M 9.5 7.5 "/>
</g>
</svg>
