<?xml version="1.0" encoding="UTF-8"?>
<svg xmlns="http://www.w3.org/2000/svg" xmlns:xlink="http://www.w3.org/1999/xlink" width="24px" height="px" viewBox="0 0 24 24" version="1.1">
<g id="surface1">
<path style=" stroke:none;fill-rule:nonzero;fill:rgb(100%,100%,100%);fill-opacity:1;" d="M 19 2 L 5 2 C 3.347656 2 2 3.347656 2 5 L 2 7.832031 C 2 8.882812 2.382812 9.839844 3 10.578125 L 3 20 C 3 20.550781 3.449219 21 4 21 L 12 21 C 12.550781 21 13 20.550781 13 20 L 13 15 L 17 15 L 17 20 C 17 20.550781 17.449219 21 18 21 L 20 21 C 20.550781 21 21 20.550781 21 20 L 21 10.574219 C 21.617188 9.839844 22 8.882812 22 7.828125 L 22 5 C 22 3.347656 20.652344 2 19 2 Z M 20 5 L 20 7.832031 C 20 8.972656 19.152344 9.941406 18.109375 9.996094 L 18 10 C 16.898438 10 16 9.101562 16 8 L 16 4 L 19 4 C 19.550781 4 20 4.449219 20 5 Z M 10 8 L 10 4 L 14 4 L 14 8 C 14 9.101562 13.101562 10 12 10 C 10.898438 10 10 9.101562 10 8 Z M 4 5 C 4 4.449219 4.449219 4 5 4 L 8 4 L 8 8 C 8 9.101562 7.101562 10 6 10 L 5.890625 9.996094 C 4.847656 9.941406 4 8.972656 4 7.832031 Z M 10 16 L 6 16 L 6 13 L 10 13 Z M 10 16 "/>
</g>
</svg>
