<?xml version="1.0" encoding="UTF-8"?>
<svg xmlns="http://www.w3.org/2000/svg" xmlns:xlink="http://www.w3.org/1999/xlink" width="24px" height="px" viewBox="0 0 24 24" version="1.1">
<g id="surface1">
<path style=" stroke:none;fill-rule:nonzero;fill:rgb(100%,100%,100%);fill-opacity:1;" d="M 4 11 L 10 11 C 10.550781 11 11 10.550781 11 10 L 11 4 C 11 3.449219 10.550781 3 10 3 L 4 3 C 3.449219 3 3 3.449219 3 4 L 3 10 C 3 10.550781 3.449219 11 4 11 Z M 4 21 L 10 21 C 10.550781 21 11 20.550781 11 20 L 11 14 C 11 13.449219 10.550781 13 10 13 L 4 13 C 3.449219 13 3 13.449219 3 14 L 3 20 C 3 20.550781 3.449219 21 4 21 Z M 14 21 L 20 21 C 20.550781 21 21 20.550781 21 20 L 21 14 C 21 13.449219 20.550781 13 20 13 L 14 13 C 13.449219 13 13 13.449219 13 14 L 13 20 C 13 20.550781 13.449219 21 14 21 Z M 21.292969 6.292969 L 17.707031 2.707031 C 17.519531 2.519531 17.265625 2.414062 17 2.414062 C 16.734375 2.414062 16.480469 2.519531 16.292969 2.707031 L 12.707031 6.292969 C 12.519531 6.480469 12.414062 6.734375 12.414062 7 C 12.414062 7.265625 12.519531 7.519531 12.707031 7.707031 L 16.292969 11.292969 C 16.480469 11.480469 16.734375 11.585938 17 11.585938 C 17.265625 11.585938 17.519531 11.480469 17.707031 11.292969 L 21.292969 7.707031 C 21.480469 7.519531 21.585938 7.265625 21.585938 7 C 21.585938 6.734375 21.480469 6.480469 21.292969 6.292969 Z M 21.292969 6.292969 "/>
</g>
</svg>
