<?xml version="1.0" encoding="UTF-8"?>
<svg xmlns="http://www.w3.org/2000/svg" xmlns:xlink="http://www.w3.org/1999/xlink" width="24px" height="px" viewBox="0 0 24 24" version="1.1">
<g id="surface1">
<path style=" stroke:none;fill-rule:nonzero;fill:rgb(100%,100%,100%);fill-opacity:1;" d="M 20 3 L 4 3 C 2.898438 3 2 3.898438 2 5 L 2 19 C 2 20.101562 2.898438 21 4 21 L 20 21 C 21.101562 21 22 20.101562 22 19 L 22 5 C 22 3.898438 21.101562 3 20 3 Z M 17 6 L 19 6 L 19 8 L 17 8 Z M 14 6 L 16 6 L 16 8 L 14 8 Z M 4 19 L 4 10 L 20 10 L 20.003906 19 Z M 4 19 "/>
</g>
</svg>
